<?xml version="1.0" standalone="no"?>
<!DOCTYPE svg PUBLIC "-//W3C//DTD SVG 20010904//EN"
 "http://www.w3.org/TR/2001/REC-SVG-20010904/DTD/svg10.dtd">
<svg version="1.0" xmlns="http://www.w3.org/2000/svg"
 width="400.000000pt" height="400.000000pt" viewBox="0 0 400.000000 400.000000"
 preserveAspectRatio="xMidYMid meet">
<metadata>
Created by potrace 1.11, written by Peter Selinger 2001-2013
</metadata>
<g transform="translate(0.000000,400.000000) scale(0.100000,-0.100000)"
fill="#000000" stroke="none">
<path d="M3987 2018 c2 -1091 5 -1992 7 -2003 2 -11 4 881 5 1983 0 1101 -3
2002 -7 2002 -5 0 -7 -892 -5 -1982z"/>
<path d="M1857 3798 c4 -20 3 -21 -9 -7 -12 14 -15 14 -27 2 -10 -11 -23 -13
-50 -7 -41 9 -58 8 -159 -1 -39 -4 -70 -10 -67 -15 7 -11 -22 -22 -70 -25 -38
-3 -208 -56 -250 -78 -11 -5 -37 -25 -58 -43 -20 -19 -42 -34 -47 -34 -6 0
-40 -30 -77 -66 -49 -49 -63 -68 -53 -74 10 -6 8 -15 -13 -39 -14 -17 -36 -52
-49 -77 -12 -26 -39 -65 -58 -88 -125 -144 -176 -283 -191 -516 -10 -154 0
-337 32 -556 5 -39 9 -90 8 -112 -2 -23 0 -44 3 -48 4 -3 0 -21 -8 -41 -8 -19
-10 -32 -5 -28 6 3 11 1 11 -4 0 -6 17 -19 37 -28 20 -10 46 -33 56 -51 l19
-33 -33 6 c-19 3 -62 22 -96 41 -34 19 -64 34 -67 34 -12 0 -5 -48 20 -135 34
-118 45 -146 53 -141 4 3 22 -18 41 -45 39 -57 49 -57 26 1 -10 25 -12 40 -5
40 6 0 13 -8 16 -17 7 -25 72 -73 99 -73 14 0 42 -18 70 -45 25 -25 49 -45 53
-45 4 0 9 46 10 103 3 187 7 220 33 277 32 67 91 126 138 135 41 8 80 41 80
66 0 10 5 21 11 25 8 5 10 33 7 88 -3 45 -2 104 3 131 25 150 30 209 18 232
-16 30 1 68 41 91 16 9 30 20 30 25 0 4 9 7 20 7 10 0 24 8 29 18 6 9 11 13
11 9 0 -5 13 1 29 12 31 22 51 27 51 12 0 -5 21 -8 48 -6 56 5 192 -14 192
-26 0 -5 20 -9 45 -9 34 0 52 -6 77 -29 18 -15 38 -26 44 -24 6 2 17 -3 24
-12 7 -8 18 -15 25 -15 7 0 20 -11 29 -25 9 -14 23 -25 31 -25 9 0 20 -12 25
-26 6 -14 14 -23 19 -20 5 3 12 -1 15 -10 8 -22 8 -24 -8 -24 -22 0 -26 -13
-16 -46 6 -22 9 -24 10 -9 1 11 2 23 1 28 0 4 6 7 14 7 8 0 15 -4 15 -9 0 -5
14 -14 31 -20 40 -14 39 -14 39 4 0 8 7 15 15 15 17 0 49 29 58 54 11 28 29 7
22 -25 -9 -39 2 -37 19 4 8 17 15 25 15 17 1 -13 2 -13 11 0 8 13 11 11 16 -7
8 -28 24 -29 51 -4 13 13 38 21 67 22 34 2 47 7 52 21 7 23 20 23 33 1 9 -16
11 -16 20 7 6 16 10 19 10 8 1 -29 38 -9 47 25 l7 32 4 -27 c3 -20 10 -28 24
-28 10 0 19 -5 19 -10 0 -6 14 3 31 21 29 30 31 30 50 13 11 -9 29 -18 42 -19
15 -1 23 -9 25 -26 2 -13 10 -31 17 -39 20 -23 36 -70 28 -83 -12 -19 -14 -55
-4 -62 6 -3 8 -12 5 -20 -3 -8 1 -21 10 -30 11 -12 15 -36 15 -99 -1 -62 3
-90 15 -109 29 -43 57 -129 72 -216 8 -46 17 -87 20 -92 8 -14 24 -10 24 6 0
8 8 19 19 24 24 13 51 71 51 108 0 21 -3 24 -10 13 -5 -8 -12 -12 -15 -8 -9 8
13 48 25 48 16 0 50 63 50 93 0 17 5 27 15 27 18 0 18 -1 1 69 -22 85 -29 184
-32 431 -3 274 -2 257 -26 355 -11 44 -20 93 -19 108 1 16 -15 70 -35 120 -26
68 -47 103 -80 136 -24 25 -44 48 -44 53 0 11 -164 175 -266 265 -94 84 -147
111 -247 123 -80 9 -117 20 -162 44 -23 13 -45 15 -90 10 -65 -6 -108 5 -138
37 -28 30 -110 22 -101 -9 3 -10 -5 -5 -18 11 -29 33 -48 35 -41 5z m-643
-961 c-4 -6 1 -4 12 5 26 23 84 21 84 -3 0 -10 7 -24 15 -33 27 -27 16 -41
-60 -76 -41 -19 -75 -38 -75 -42 0 -5 -5 -8 -11 -8 -7 0 -8 7 -4 18 4 9 8 25
10 35 2 10 7 28 11 39 4 14 2 18 -5 14 -6 -4 -11 -16 -11 -26 0 -21 -35 -46
-44 -31 -3 5 -1 34 6 65 9 45 16 60 37 71 22 11 27 11 34 -1 4 -8 5 -20 1 -27z
m-108 -35 c-19 -20 -20 -7 -4 39 l13 34 3 -29 c2 -17 -3 -35 -12 -44z m1804
-54 c0 -22 -28 16 -35 47 l-7 30 21 -33 c12 -18 21 -38 21 -44z m13 -30 c4
-10 8 -10 15 0 7 11 11 10 17 -5 5 -10 7 -22 6 -26 0 -4 3 -16 9 -27 7 -13 6
-20 -3 -23 -7 -3 -5 -6 6 -6 9 -1 17 4 17 9 0 6 5 10 11 10 6 0 10 -10 9 -22
-1 -13 -2 -34 -1 -48 l1 -24 29 31 c27 30 29 30 30 10 0 -12 4 -46 7 -76 5
-44 3 -56 -10 -63 -9 -5 -16 -18 -16 -30 0 -17 -2 -18 -15 -8 -8 7 -15 29 -15
50 0 21 -6 43 -14 50 -8 6 -16 28 -18 48 -3 34 -4 35 -15 16 -7 -11 -13 -40
-14 -62 -4 -54 -25 -55 -34 -2 -4 22 -11 40 -17 40 -6 0 -6 6 2 15 8 10 10 29
5 62 -13 82 -14 93 -5 93 5 0 11 -6 13 -12z m157 -52 c0 -8 -4 -18 -10 -21 -5
-3 -10 3 -10 14 0 12 5 21 10 21 6 0 10 -6 10 -14z m-198 -32 c10 -21 9 -31
-5 -56 -9 -16 -17 -39 -17 -50 0 -29 -12 -14 -17 19 -5 40 7 113 18 113 5 0
15 -12 21 -26z"/>
<path d="M2935 2670 c3 -5 8 -10 11 -10 2 0 4 5 4 10 0 6 -5 10 -11 10 -5 0
-7 -4 -4 -10z"/>
<path d="M2760 2465 c0 -8 4 -15 10 -15 5 0 7 7 4 15 -4 8 -8 15 -10 15 -2 0
-4 -7 -4 -15z"/>
<path d="M2676 2083 c-9 -22 0 -28 26 -16 l23 10 -22 11 c-17 10 -22 9 -27 -5z"/>
<path d="M2396 1795 c-34 -11 -59 -24 -58 -29 2 -5 -2 -12 -8 -16 -7 -4 -13
-32 -14 -61 l-1 -54 122 -3 c114 -3 123 -2 135 17 15 25 28 27 28 5 0 -14 11
-16 80 -12 84 5 117 19 148 66 13 20 12 22 -12 33 -14 7 -23 15 -21 20 3 4 -9
10 -27 14 -18 3 -42 10 -53 15 -11 4 -29 12 -40 16 -42 17 -216 10 -279 -11z"/>
<path d="M1795 1780 c-27 -5 -78 -9 -113 -9 -34 -1 -70 -5 -80 -10 -16 -8 -40
-15 -189 -57 -45 -12 -63 -22 -67 -37 -13 -53 91 -72 355 -64 162 4 200 3 207
-8 13 -24 84 16 101 56 8 19 20 42 28 51 18 20 9 38 -18 38 -10 0 -19 3 -19 8
0 9 -67 30 -116 36 -22 2 -61 0 -89 -4z"/>
<path d="M2372 1589 c7 -21 52 -39 110 -45 29 -2 46 -1 38 2 -8 4 -32 15 -53
25 -56 26 -100 34 -95 18z"/>
<path d="M805 1520 c3 -5 10 -10 16 -10 5 0 9 5 9 10 0 6 -7 10 -16 10 -8 0
-12 -4 -9 -10z"/>
<path d="M1020 1291 c0 -6 -21 -17 -47 -25 l-48 -15 36 0 c46 -1 101 18 96 33
-5 14 -37 21 -37 7z"/>
<path d="M2444 1226 c-6 -17 -1 -29 41 -81 78 -99 114 -125 175 -125 45 0 60
10 60 40 0 25 -6 30 -52 46 -58 19 -140 69 -178 109 -27 29 -38 31 -46 11z"/>
<path d="M2030 1206 c-29 -17 -80 -21 -80 -6 0 6 -8 10 -17 10 -33 -1 60 -76
123 -100 69 -27 104 -27 161 0 24 11 49 20 57 20 8 0 24 13 35 29 l20 28 -20
19 c-17 15 -26 16 -58 8 -40 -11 -86 -11 -156 0 -27 4 -48 2 -65 -8z"/>
<path d="M1755 1149 c-16 -16 -37 -29 -46 -29 -9 0 -36 -11 -60 -24 -54 -28
-191 -45 -214 -26 -28 23 -38 0 -32 -75 4 -40 9 -79 13 -88 5 -14 -2 -17 -45
-16 -47 2 -51 4 -51 25 0 24 -18 32 -36 15 -11 -12 -33 4 -57 42 -10 15 -33
35 -52 44 -34 16 -37 16 -132 -22 -54 -21 -113 -44 -131 -51 -36 -15 -62 -61
-63 -116 -1 -55 -12 -68 -81 -97 -62 -26 -136 -72 -184 -113 -11 -10 -70 -49
-130 -88 -169 -107 -211 -140 -281 -215 -87 -94 -173 -234 -173 -280 l0 -35
1906 0 c1521 0 1904 3 1898 13 -5 6 -29 39 -54 72 -26 33 -71 96 -100 140 -47
70 -114 157 -145 191 -5 6 -24 26 -40 45 -47 54 -89 81 -250 164 -198 102
-201 104 -208 160 -11 78 -48 115 -130 130 -26 5 -37 12 -33 21 12 30 -15 23
-29 -8 -8 -18 -14 -29 -15 -24 0 6 -9 0 -20 -12 -21 -22 -53 -38 -132 -67 -30
-11 -70 -39 -107 -76 -44 -42 -65 -56 -80 -52 -16 4 -19 1 -14 -16 3 -14 0
-23 -11 -27 -9 -3 -16 -11 -16 -16 0 -17 -41 -48 -97 -75 -48 -23 -57 -24
-116 -15 -41 7 -80 7 -103 1 -42 -9 -180 7 -190 22 -3 5 -14 9 -25 9 -33 0
-183 118 -201 157 -1 5 -25 27 -52 51 -39 33 -57 42 -86 42 -21 0 -42 6 -47
13 -16 20 -22 56 -9 60 6 2 -4 7 -21 11 -37 8 -45 26 -12 26 11 0 17 4 14 10
-3 5 7 12 22 16 15 3 55 14 87 25 l60 19 25 -24 c16 -15 52 -31 91 -40 36 -9
85 -22 109 -29 30 -9 61 -11 100 -6 72 10 298 13 332 4 23 -6 37 -35 17 -35
-5 0 -6 -4 -3 -10 8 -13 42 9 48 31 6 22 113 70 141 63 26 -6 56 30 56 66 0
17 -6 20 -44 20 -35 0 -48 -5 -60 -22 -13 -19 -29 -22 -118 -29 -57 -4 -122
-12 -145 -18 -29 -8 -55 -8 -85 -1 -24 5 -96 10 -160 10 -98 0 -118 3 -118 15
0 8 -9 15 -19 15 -11 0 -23 5 -26 10 -5 8 -11 8 -20 0 -9 -8 -15 -8 -20 0 -3
5 -21 10 -38 11 -18 0 -25 3 -17 6 24 9 85 75 98 106 14 34 5 33 -33 -4z m-48
-125 c-3 -3 -12 -4 -19 -1 -8 3 -5 6 6 6 11 1 17 -2 13 -5z m-701 -342 c-14
-14 -16 -14 -16 -1 0 20 23 44 29 28 2 -6 -4 -18 -13 -27z m1736 2 c35 -25 37
-28 21 -40 -10 -7 -22 -14 -28 -14 -11 0 -75 61 -75 72 0 17 46 7 82 -18z
m-1602 -44 c0 -5 15 -14 33 -19 17 -5 24 -10 14 -10 -10 -1 -15 -6 -12 -11 3
-6 17 -7 31 -4 17 5 24 2 24 -9 0 -8 12 -20 28 -25 15 -6 21 -11 13 -11 -11
-1 -11 -4 -1 -16 19 -23 0 -19 -91 16 -73 29 -98 48 -66 50 10 0 10 2 0 6 -25
10 -12 39 20 42 4 1 7 -3 7 -9z m247 -156 c-3 -3 -12 -4 -19 -1 -8 3 -5 6 6 6
11 1 17 -2 13 -5z"/>
<path d="M2070 838 c-11 -4 -20 -13 -19 -20 4 -29 -2 -38 -26 -38 -14 0 -25
-4 -25 -9 0 -16 39 -23 83 -17 23 3 86 7 140 8 90 2 97 4 97 23 0 11 3 29 6
40 5 19 0 20 -115 20 -66 1 -129 -3 -141 -7z"/>
</g>
</svg>
